<svg xmlns="http://www.w3.org/2000/svg" width="1200" height="800" viewBox="0 0 1200 800" role="img" aria-label="Virtual chemistry lab simulation">
  <rect width="1200" height="800" fill="#03070d"/>
  <circle cx="932" cy="164" r="180" fill="#0ea5e9" opacity=".12"/>
  <circle cx="246" cy="630" r="220" fill="#22d3ee" opacity=".08"/>
  <rect x="140" y="570" width="920" height="48" rx="24" fill="#111827" stroke="#334155"/>
  <g transform="translate(210 145)">
    <path d="M130 60h120v350a60 60 0 0 1-120 0z" fill="#071827" stroke="#7dd3fc" stroke-width="5"/>
    <path d="M139 280h102v130a51 51 0 0 1-102 0z" fill="#0e7490" opacity=".75"/>
    <path d="M520 92h116v330a58 58 0 0 1-116 0z" fill="#071827" stroke="#93c5fd" stroke-width="5"/>
    <path d="M530 308h96v114a48 48 0 0 1-96 0z" fill="#2563eb" opacity=".76"/>
    <path d="M308 130c92 36 166 90 222 162" stroke="#67e8f9" stroke-width="18" stroke-linecap="round" fill="none" opacity=".8"/>
    <circle cx="384" cy="194" r="14" fill="#67e8f9"/><circle cx="445" cy="238" r="10" fill="#bfdbfe"/><circle cx="505" cy="294" r="18" fill="#22d3ee"/>
  </g>
  <g font-family="Arial, sans-serif" fill="#e2e8f0">
    <text x="78" y="92" font-size="42" font-weight="700">Virtual Chemistry Lab</text>
    <text x="78" y="138" font-size="22" fill="#94a3b8">Guided experiment workflow with particle reaction feedback</text>
  </g>
</svg>
