<svg xmlns="http://www.w3.org/2000/svg" width="1200" height="800" viewBox="0 0 1200 800" role="img" aria-label="VR screw insertion simulator interaction scene">
  <defs>
    <linearGradient id="bg" x1="0" y1="0" x2="1" y2="1">
      <stop stop-color="#06111d"/>
      <stop offset="0.55" stop-color="#071827"/>
      <stop offset="1" stop-color="#020611"/>
    </linearGradient>
    <linearGradient id="cyan" x1="0" y1="0" x2="1" y2="1">
      <stop stop-color="#67e8f9"/>
      <stop offset="1" stop-color="#2563eb"/>
    </linearGradient>
    <filter id="glow"><feGaussianBlur stdDeviation="8" result="b"/><feMerge><feMergeNode in="b"/><feMergeNode in="SourceGraphic"/></feMerge></filter>
  </defs>
  <rect width="1200" height="800" fill="url(#bg)"/>
  <g opacity=".18" stroke="#38bdf8">
    <path d="M0 610h1200M0 540h1200M0 470h1200M0 400h1200M0 330h1200"/>
    <path d="M150 800 520 160M340 800 650 160M530 800 780 160M720 800 910 160M910 800 1040 160"/>
  </g>
  <rect x="210" y="510" width="790" height="68" rx="12" fill="#111827" stroke="#334155"/>
  <rect x="668" y="348" width="120" height="214" rx="20" fill="#0f172a" stroke="#475569"/>
  <circle cx="728" cy="334" r="56" fill="#111827" stroke="#67e8f9" stroke-width="5"/>
  <path d="M728 291v86M685 334h86" stroke="#67e8f9" stroke-width="12" stroke-linecap="round"/>
  <g transform="rotate(-24 465 323)">
    <rect x="208" y="286" width="520" height="72" rx="34" fill="#1e293b" stroke="#64748b" stroke-width="2"/>
    <rect x="140" y="268" width="130" height="108" rx="28" fill="url(#cyan)" filter="url(#glow)"/>
    <rect x="710" y="306" width="130" height="32" rx="16" fill="#cbd5e1"/>
    <path d="M828 322h110" stroke="#67e8f9" stroke-width="8" stroke-linecap="round" filter="url(#glow)"/>
  </g>
  <g fill="none" stroke="#22d3ee" stroke-width="3" opacity=".82">
    <circle cx="728" cy="334" r="108"/>
    <path d="M610 252c70-58 172-58 238 0"/>
    <path d="M604 430c70 62 181 62 251 0"/>
  </g>
  <g font-family="Arial, sans-serif" fill="#e2e8f0">
    <text x="84" y="92" font-size="42" font-weight="700">Torque + Alignment Validation</text>
    <text x="84" y="138" font-size="22" fill="#94a3b8">VR screwdriver workflow with staged interaction feedback</text>
  </g>
</svg>
