<svg xmlns="http://www.w3.org/2000/svg" width="1200" height="800" viewBox="0 0 1200 800" role="img" aria-label="Sony XYN Spatial Reality Display and mocopi testing project">
  <defs>
    <linearGradient id="bg" x1="0" y1="0" x2="1" y2="1">
      <stop stop-color="#03070d"/>
      <stop offset=".52" stop-color="#061525"/>
      <stop offset="1" stop-color="#020617"/>
    </linearGradient>
    <linearGradient id="panel" x1="0" y1="0" x2="1" y2="1">
      <stop stop-color="#0e7490"/>
      <stop offset="1" stop-color="#1d4ed8"/>
    </linearGradient>
  </defs>
  <rect width="1200" height="800" fill="url(#bg)"/>
  <g opacity=".14" stroke="#38bdf8">
    <path d="M0 620h1200M0 540h1200M0 460h1200M0 380h1200"/>
    <path d="M180 800 500 160M410 800 640 160M640 800 780 160M870 800 920 160"/>
  </g>
  <rect x="180" y="192" width="520" height="330" rx="28" fill="#071827" stroke="#164e63" stroke-width="4"/>
  <rect x="225" y="240" width="430" height="230" rx="18" fill="#020617" stroke="#22d3ee" stroke-width="2"/>
  <path d="M310 420c48-116 151-168 260-116" fill="none" stroke="#67e8f9" stroke-width="8" stroke-linecap="round"/>
  <path d="M352 410c40-70 110-94 178-52" fill="none" stroke="#60a5fa" stroke-width="6" stroke-linecap="round"/>
  <circle cx="775" cy="310" r="64" fill="#071827" stroke="#93c5fd" stroke-width="4"/>
  <path d="M775 250v122M714 311h122" stroke="#22d3ee" stroke-width="8" stroke-linecap="round"/>
  <g transform="translate(820 420)">
    <circle cx="0" cy="0" r="18" fill="#67e8f9"/>
    <circle cx="80" cy="44" r="18" fill="#93c5fd"/>
    <circle cx="148" cy="-14" r="18" fill="#67e8f9"/>
    <path d="M0 0 80 44 148-14" stroke="#38bdf8" stroke-width="5" fill="none"/>
  </g>
  <g font-family="Arial, sans-serif" fill="#e2e8f0">
    <text x="76" y="94" font-size="40" font-weight="700">Sony XYN Workflow Testing</text>
    <text x="76" y="140" font-size="22" fill="#94a3b8">Spatial display evaluation + mocopi motion capture pipeline</text>
  </g>
</svg>
